<svg width="159" height="32" viewBox="0 0 159 32" fill="none" xmlns="http://www.w3.org/2000/svg">
<path d="M9.52574 30.6878C11.8038 30.6878 17.1648 29.2828 20.4842 17.3831V17.3058C20.4842 17.1558 20.3659 17.0421 20.175 17.0421C20.0977 17.0421 19.984 17.1194 19.9431 17.2331C17.665 25.4405 13.8864 30.1194 9.56666 30.1194C9.18016 30.1194 8.94826 30.1194 8.52539 30.0421C7.75239 29.7375 5.90173 28.7508 4.97413 26.2044C4.27843 24.3037 3.62365 21.7938 3.62365 18.5244C3.62365 16.3555 3.93285 13.8091 4.70586 10.8444C6.63381 3.73737 10.2987 1.98676 11.6856 1.56843H11.9584C14.9686 1.56843 16.9738 4.38306 17.2057 7.87975C17.2057 8.07072 16.9329 8.48905 16.9329 8.48905C16.9329 8.48905 16.7419 8.71641 16.7419 8.90738C16.7419 9.21204 17.0102 9.47577 17.3194 9.51669C17.665 9.51669 17.9378 9.24841 17.9378 8.94376C17.9378 8.79371 17.8605 8.07072 17.8196 7.68877C17.474 3.77375 15.1186 1.00004 11.9175 1.00004C9.21654 1.00004 5.28333 2.40508 2.77335 8.75278C1.57748 11.7584 1 14.6094 1 17.5741C1 19.2838 1.19552 21.0344 1.57748 22.8214C2.58238 27.3048 5.82443 30.6878 9.52574 30.6878ZM29.7011 25.9361C30.0103 25.9361 30.2785 25.8588 30.5877 25.7088C33.2478 24.4174 34.7938 17.6105 34.8711 17.3467V17.2694C34.8711 17.1558 34.7528 17.0421 34.6392 17.0057H34.5619C34.4436 17.0057 34.3663 17.0785 34.33 17.1921C34.289 17.2694 32.9795 23.0487 30.8969 24.8357C30.856 24.8721 30.665 24.9858 30.4331 24.9858H30.2785C29.5828 24.7948 29.3919 23.6171 29.1963 22.2121C29.0417 21.0344 28.9281 18.488 28.9281 16.8875V16.1281C28.9281 14.7595 28.2733 14.2684 27.8095 14.0365C27.6185 13.9228 27.423 13.9228 27.3093 13.9228C27.1138 13.9228 27.0001 13.9637 26.9228 14.0365C26.8455 14.0774 26.7682 14.1138 26.7682 14.2274C26.7682 14.3411 26.65 15.105 26.5727 16.2054V16.3964C25.7633 15.3324 24.722 14.7595 23.6444 14.7595L23.2579 14.8004C21.7892 15.0277 20.5569 16.3191 20.134 18.1061C20.0158 18.6017 19.9021 19.1337 19.9021 19.7794C19.9021 20.2341 19.9794 20.7297 20.134 21.2618C20.4796 22.4031 21.4072 23.4262 22.6395 23.4262C22.7941 23.4262 22.9487 23.4262 23.1033 23.3898C24.2218 23.126 25.1858 22.0984 26.0361 20.3114C26.2271 19.9295 26.3817 19.5111 26.5363 19.0564C26.5727 21.8711 27.0774 24.9494 28.8508 25.7452C29.119 25.8998 29.3919 25.9361 29.7011 25.9361ZM23.6034 22.1757C23.1033 22.1757 22.6031 21.8301 22.3712 21.2981C22.2166 20.9571 22.062 20.4615 22.062 19.8567C22.062 19.1337 22.253 18.2561 22.7941 17.2331C23.2169 16.3964 23.758 15.9781 24.1809 15.8235C24.4128 15.7507 24.5674 15.7098 24.722 15.7098C24.9948 15.7098 25.1494 15.7871 25.1858 15.7871C25.6496 16.1281 26.0725 16.5874 26.4181 17.1921C26.2271 18.1425 25.9588 19.1701 25.5314 20.0841C25.1858 20.8434 24.7993 21.4118 24.4128 21.8711C24.1809 22.0575 23.9126 22.1757 23.6034 22.1757ZM51.8771 28.2551C54.4644 28.2551 56.6606 23.6581 58.0111 17.3831V17.3058C58.0111 17.1558 57.8974 17.0785 57.7428 17.0421C57.6291 17.0421 57.5109 17.1558 57.4745 17.2694C56.3923 22.2485 54.8872 25.7452 53.3049 27.0774C53.2276 27.1138 53.1139 27.1547 52.9957 27.1547C52.8411 27.1547 52.691 27.1138 52.5364 26.9638C52.0726 26.5818 51.9544 24.9858 51.9544 23.4262C51.9544 20.9935 52.0317 21.0708 52.0726 19.4748C52.0726 18.3744 51.9544 17.3058 51.3769 16.3964C50.7585 15.4051 49.7945 15.1778 49.1034 15.1778C48.5623 15.1778 48.1758 15.2915 48.1758 15.2915C47.712 15.4461 47.1709 15.7507 46.748 16.3555C46.748 15.3688 46.748 11.722 44.6245 10.6171C44.047 10.3124 43.5059 10.2397 43.0421 10.2397C42.3874 10.2397 41.9645 10.3897 41.9645 10.3897L41.9236 10.4261C40.1138 10.7717 38.4541 14.5321 36.8718 18.9791V18.488C36.8718 17.9151 36.8308 17.4604 36.7172 17.2694C36.4489 16.8875 35.7896 16.8147 35.3258 16.8147L34.8256 16.8511C34.8256 17.0057 34.5937 16.9648 34.5937 17.1558C34.5573 19.5111 34.5164 20.3887 34.2845 23.8854V24.1128C34.2845 24.9085 34.48 25.1404 34.8256 25.1768C34.9802 25.1768 35.0211 25.0631 35.2121 25.0631L35.253 24.9494C35.6759 24.5311 35.8669 23.8445 36.3307 22.3258C37.6038 18.3744 40.0365 10.9581 42.1964 10.9581C43.7015 11.0354 44.3153 12.9725 44.3153 16.3191C44.3153 19.8158 43.5832 23.6944 43.5832 23.7717V23.8445C43.5832 23.9991 43.6605 24.0764 43.8561 24.0764C43.9697 24.0764 44.088 23.9991 44.1243 23.8854C44.1243 23.8081 45.975 16.9648 48.0212 15.9008C48.2121 15.8235 48.3667 15.7871 48.5213 15.7871C49.408 15.9371 49.6035 16.7738 49.6035 18.7154C49.6035 20.3478 49.408 22.2485 49.408 23.8445C49.408 25.7452 49.6808 27.3412 50.7994 27.9505C51.145 28.1415 51.5315 28.2551 51.8771 28.2551ZM59.1296 14.5321C60.0936 14.5321 60.8621 13.7727 60.8621 12.8224C60.8621 11.9084 60.0936 11.1491 59.1296 11.1491C58.202 11.1491 57.429 11.9084 57.429 12.8224C57.429 13.7727 58.202 14.5321 59.1296 14.5321ZM60.4028 25.4405C62.2535 25.4405 64.1041 22.7441 64.9908 17.3467V17.2694C64.9908 17.1558 64.8771 17.0421 64.7589 17.0057C64.6043 17.0057 64.4906 17.0785 64.4497 17.2331C63.9495 20.275 63.0219 22.7805 61.9806 23.9991C61.867 24.1128 61.7124 24.2264 61.5578 24.2264C61.3259 24.2264 61.094 24.0355 60.903 23.5808C60.1709 21.6437 60.5529 16.701 59.8617 16.169C59.6662 16.0144 59.2797 15.9781 58.9341 15.9781C58.4339 15.9781 57.9701 16.0554 57.9701 16.0554C57.7792 16.1281 57.7382 15.9371 57.7382 18.0697C57.7382 20.3478 57.9701 24.1491 59.5116 25.1768C59.7844 25.3678 60.0936 25.4405 60.4028 25.4405ZM82.0923 30.0512C84.3977 30.0512 86.4075 28.7553 87.4487 26.6046C87.7443 25.968 87.9444 25.1631 87.9444 24.331C87.9444 22.9624 87.4487 21.4982 86.2074 20.6206C87.6215 19.884 88.1399 18.7109 88.1399 17.565C88.1399 15.6825 86.3074 15.3415 86.2801 15.3415L86.2347 15.3187C86.1074 15.3642 85.489 15.2414 85.489 15.8553L85.5117 16.0235C85.6117 16.4646 86.503 16.3691 86.9531 17.1239C87.1486 17.4422 87.276 17.8333 87.276 18.2471C87.276 19.1292 86.703 20.0795 85.3162 20.6206C84.8706 20.7889 84.6205 20.8616 84.1976 20.9844C81.001 21.7165 79.3868 23.2806 79.3868 25.6042C79.3868 26.1135 79.4141 26.7 79.9097 26.7C80.4281 26.6773 80.4781 26.1135 80.4781 26.1135C80.4781 26.1135 80.4053 25.677 80.4053 25.1404C80.4053 23.649 81.2465 22.5986 81.8195 22.2576C82.4879 21.8665 83.3064 21.5482 84.2976 21.3254C84.8933 21.1799 85.4162 21.0117 85.8618 20.8116C87.1486 21.621 87.5715 23.0124 87.5715 24.281C87.5715 25.1404 87.3714 25.9452 87.1259 26.459C86.1574 28.487 84.2749 29.6829 82.0923 29.6829C81.5967 29.6829 81.1238 29.6329 80.6554 29.5374C80.5054 29.4874 79.314 29.0463 78.4728 27.6777C78.0727 26.9956 77.7544 25.8452 77.7544 24.6266C77.7544 22.062 79.3641 19.7385 81.8422 18.9064C82.2151 18.8109 82.015 18.8609 82.4151 18.8109C82.5152 18.8109 82.5379 18.7381 82.5606 18.5926C82.5606 18.5426 82.5152 18.4926 82.4379 18.4699C81.6467 18.1516 81.0237 17.7378 80.5054 16.1963C80.3826 15.8053 80.2053 15.0959 80.2053 14.2638C80.2053 13.5317 80.3326 12.7269 80.7282 11.9448C81.6194 10.1351 83.1063 10.0896 83.3336 10.0896C84.7205 10.5034 85.5617 11.5538 85.5617 12.8997C85.5617 13.1407 85.539 13.3635 85.489 13.6045C85.489 13.7273 85.2389 13.7773 85.2389 13.7773C85.0161 13.7773 84.8706 13.9728 84.8706 14.1683C84.8706 14.3866 84.9933 14.4639 85.2389 14.5366C85.3662 14.5366 85.589 14.4639 85.589 14.2911C85.589 14.2911 85.7345 14.0456 85.8846 13.559H85.8618C85.9118 13.3362 85.9346 13.118 85.9346 12.8997C85.9346 10.9445 84.3977 9.62582 82.2424 9.59854C80.2826 9.59854 78.5729 11.04 78.5229 13.7773C78.5229 16.7101 80.6282 18.0788 81.7194 18.5653C80.2053 18.8609 76.6358 20.0068 76.213 24.0127C76.1902 24.2583 76.1902 24.4811 76.1902 24.7221C76.1902 28.0232 78.7184 30.0512 82.0923 30.0512ZM105.164 31.2971C105.278 31.2971 105.551 31.2971 105.937 31.1425C106.515 30.9152 106.746 30.3104 106.746 30.3104C106.746 30.3104 106.937 29.9648 107.092 29.0918C107.288 27.8368 107.597 21.9847 108.211 17.4968C109.87 17.4968 111.876 17.4968 113.844 17.5377H113.881C114.035 17.5377 114.154 17.424 114.154 17.2694C114.154 17.1194 114.035 17.0057 113.881 17.0057L110.448 16.9284L108.252 16.9648C109.061 10.1624 110.139 3.6237 110.293 2.82342C112.38 2.97802 114.345 3.28267 116.504 3.28267C118.164 3.28267 119.787 3.12807 121.406 2.55968C121.52 2.48238 121.597 2.36871 121.597 2.25503C121.597 2.10043 121.483 2.02768 121.329 2.02768H121.252C119.71 2.55969 118.164 2.75066 116.545 2.75066C113.499 2.75066 110.257 2.06405 106.746 2.06405C105.087 2.06405 103.427 2.21865 101.731 2.67336C96.9839 3.92835 94.1284 7.42504 94.1284 11.3401C94.1284 13.6591 95.1333 15.9008 96.9066 17.3831C97.1021 17.5741 97.2158 17.6878 97.4477 17.8378C97.6432 17.9924 97.9115 18.1834 98.2207 18.1834C98.6072 18.1834 98.8391 17.9151 98.8391 17.5741C98.8391 17.2694 98.5299 17.0057 98.2207 17.0057C97.9479 17.0057 97.9479 17.1194 97.6796 17.1558C97.4887 17.1558 97.5659 17.1558 97.4114 17.1194C95.6744 15.7507 94.7104 13.6227 94.7104 11.3764C94.7104 7.6524 97.3341 4.38306 101.886 3.20537C103.623 2.75066 105.319 2.63244 106.978 2.63244H107.788C106.824 6.89304 106.092 12.0221 105.587 17.0057L103.468 17.0785C103.313 17.0785 103.195 17.1921 103.195 17.3467C103.236 17.4968 103.35 17.6105 103.504 17.6105C103.504 17.6105 104.277 17.5741 105.51 17.5741C105.05 22.3258 104.778 26.8865 104.778 30.3468V31.0288C104.778 31.2607 104.932 31.2971 105.164 31.2971ZM119.124 26.2408C121.788 26.2408 125.376 23.7717 127.768 18.5244L127.804 18.4107C127.804 18.2198 127.69 18.1834 127.536 18.1425C127.422 18.1425 127.304 18.2198 127.267 18.2971C125.762 21.5664 123.793 23.6944 121.943 24.7948C121.515 25.0267 121.056 25.1768 120.551 25.1768C120.015 25.1768 119.474 24.9858 118.933 24.5311C118.278 23.9991 117.928 22.8941 117.85 21.7165C120.051 20.7661 121.133 18.9791 121.133 17.6105C121.133 16.5101 120.438 15.637 119.278 15.637C118.201 15.6734 115.577 16.5874 115.459 21.6437C115.459 24.6084 117.041 26.2408 119.124 26.2408ZM117.85 21.1072C117.85 18.2561 119.51 16.7738 120.128 16.4737C120.474 16.701 120.592 17.0785 120.592 17.5741C120.592 18.6745 119.783 20.1977 117.85 21.1072ZM139.876 28.4825C142.386 28.4825 144.701 24.9858 146.129 18.5608V18.488C146.129 18.3744 146.051 18.2561 145.933 18.2198C145.778 18.2198 145.624 18.2971 145.587 18.4471C144.623 22.7441 143.041 26.0134 141.422 27.3412C141.304 27.3821 141.19 27.4185 141.036 27.4185C140.727 27.4185 140.377 27.3048 139.995 26.8865C138.99 25.7861 137.948 22.6304 137.948 17.8787C137.948 17.0421 137.985 16.169 138.026 15.2915C140.417 12.8588 141.959 9.40302 141.959 7.08401C141.959 5.48345 141.268 4.53311 139.84 4.46036C139.103 4.46036 138.062 4.95144 137.098 7.00671C136.098 9.17111 135.402 12.5541 135.211 16.0144C134.32 14.7595 133.165 14.0774 131.969 14.0774C129.732 14.0774 127.222 16.6237 127.222 19.9295C127.222 20.8434 127.417 21.7574 127.84 22.6668C128.34 23.6944 129.423 24.3765 130.541 24.3765L130.928 24.3401C131.851 24.2264 133.938 23.5035 135.211 19.4384C135.402 22.8578 136.211 25.9771 137.794 27.4958C138.449 28.1778 139.181 28.4825 139.876 28.4825ZM138.103 14.4184C138.258 12.6314 138.567 10.8444 139.031 9.13474C139.799 6.09275 140.417 5.41069 140.763 5.41069L140.881 5.44707C141.227 5.8654 141.381 6.36103 141.381 7.12039C141.381 9.13474 140.108 12.0994 138.103 14.4184ZM131.428 23.5808C130.773 23.5808 129.886 22.7077 129.886 20.6161C129.886 19.8931 130 19.0928 130.273 18.1425C130.732 16.5874 131.505 15.5961 132.278 15.1778C132.624 14.9868 132.897 14.9504 133.088 14.9504L133.32 14.9868C134.015 15.3688 134.67 16.0554 135.211 17.0057C135.17 17.1194 135.17 17.1921 135.17 17.3058C134.361 21.5664 132.778 23.0487 131.701 23.5398L131.428 23.5808ZM149.207 26.2408C151.872 26.2408 155.459 23.7717 157.851 18.5244L157.887 18.4107C157.887 18.2198 157.774 18.1834 157.619 18.1425C157.505 18.1425 157.387 18.2198 157.351 18.2971C155.846 21.5664 153.877 23.6944 152.026 24.7948C151.599 25.0267 151.139 25.1768 150.635 25.1768C150.098 25.1768 149.557 24.9858 149.016 24.5311C148.361 23.9991 148.011 22.8941 147.938 21.7165C150.135 20.7661 151.217 18.9791 151.217 17.6105C151.217 16.5101 150.521 15.637 149.362 15.637C148.284 15.6734 145.66 16.5874 145.542 21.6437C145.542 24.6084 147.124 26.2408 149.207 26.2408ZM147.938 21.1072C147.938 18.2561 149.593 16.7738 150.212 16.4737C150.557 16.701 150.676 17.0785 150.676 17.5741C150.676 18.6745 149.866 20.1977 147.938 21.1072Z" fill="#8FC7AE" stroke="#8FC7AE" stroke-width="0.251434" stroke-miterlimit="22.9256"/>
</svg>
