<svg width="121" height="26" viewBox="0 0 121 26" fill="none" xmlns="http://www.w3.org/2000/svg">
<path d="M13.1407 20.666C13.077 20.7934 12.9542 20.9161 12.7723 21.0298C12.5905 21.1435 12.4086 21.2299 12.2176 21.2981C12.0312 21.3617 11.8584 21.389 11.7038 21.3799C11.5492 21.3708 11.4582 21.3026 11.4719 21.1753C11.7538 17.5877 11.9948 14.7958 12.1585 12.7951C12.3222 10.7944 12.4222 9.63942 12.4541 9.33022C11.4219 11.5128 10.4988 13.3589 9.68944 14.8776C8.87551 16.3963 8.12979 17.6332 7.45228 18.5835C6.77022 19.5384 6.13363 20.225 5.53342 20.6524C4.93776 21.0844 4.3239 21.2981 3.70095 21.2981C3.03254 21.2981 2.49598 21.1207 2.10494 20.7615C1.71389 20.4069 1.42742 19.984 1.25918 19.4929C1.08639 19.0018 1 18.4971 1 17.9924C1 17.4831 1.05002 17.0739 1.14551 16.7692C1.19552 16.6055 1.32284 16.4418 1.52746 16.269C1.73208 16.1008 1.95488 15.9735 2.19133 15.8825C2.42778 15.7961 2.65968 15.7598 2.87794 15.7734C3.10074 15.7916 3.26898 15.9053 3.38266 16.1144C3.03708 16.9693 2.82337 17.7286 2.71879 18.388C2.67332 18.679 2.65058 18.9609 2.65968 19.2246C2.66422 19.4929 2.7097 19.7339 2.79154 19.9522C2.87339 20.1704 3.00525 20.3432 3.18714 20.4751C3.36447 20.6024 3.61456 20.666 3.92376 20.666C4.30117 20.666 4.7104 20.4842 5.15147 20.1204C5.59708 19.7566 6.06088 19.261 6.54287 18.6335C7.02486 18.0015 7.52503 17.2557 8.0434 16.3918C8.55722 15.5279 9.07558 14.6003 9.5894 13.609C10.1078 12.6132 10.6125 11.5765 11.1127 10.4943C11.6128 9.41206 12.0721 8.31622 12.5768 7.24766C12.7951 6.78386 12.886 6.40191 12.7723 6.06088C12.6587 5.7244 12.4631 5.55615 12.1812 5.55615C12.4268 5.50614 12.6632 5.44702 12.8951 5.38337C13.0906 5.33335 13.2862 5.29243 13.4726 5.2515C13.6636 5.21058 13.8227 5.19239 13.95 5.19239C14.0819 5.19239 14.2183 5.24695 14.3593 5.36063C14.4957 5.47431 14.5548 5.64255 14.5412 5.8699C14.5366 5.93356 14.5139 6.31551 14.4548 7.02031C14.4002 7.72056 14.3274 8.62997 14.2456 9.744C14.1637 10.858 14.0592 12.1312 13.9273 13.559C13.7954 14.9868 13.659 16.4509 13.509 17.956C14.3956 16.3554 15.4142 14.7958 16.5691 13.2816C17.7241 11.7629 18.9473 10.2896 20.2432 8.87096C20.9298 8.12524 21.7482 7.30223 22.6895 6.38827C23.6307 5.47886 24.6174 4.61946 25.6405 3.82372C26.6636 3.02344 27.6776 2.35502 28.6871 1.81392C29.6965 1.27282 30.6105 0.999998 31.4289 0.999998C32.1019 0.999998 32.6339 1.17733 33.025 1.532C33.4206 1.88667 33.7025 2.3141 33.8753 2.80518C34.048 3.29626 34.1299 3.79644 34.1299 4.30571C34.1299 4.81498 34.0799 5.21967 33.9844 5.52887C33.9298 5.70621 33.8071 5.879 33.6024 6.03814C33.3978 6.20184 33.175 6.32461 32.9386 6.41555C32.7021 6.50194 32.4702 6.53832 32.252 6.52468C32.0292 6.50649 31.8609 6.39281 31.7472 6.18365C32.0928 5.3288 32.3111 4.56944 32.4111 3.90557C32.4566 3.61456 32.4793 3.33719 32.4748 3.07346C32.4657 2.80518 32.4202 2.56419 32.3384 2.34593C32.2565 2.12767 32.1246 1.95488 31.9428 1.82302C31.7654 1.6957 31.5199 1.63204 31.2061 1.63204C30.324 1.63204 29.3418 1.94579 28.2687 2.57328C27.1956 3.20532 26.0816 4.03744 24.9266 5.06962C23.7717 6.1018 22.6122 7.28859 21.4481 8.62997C20.2841 9.97135 19.1837 11.3446 18.1424 12.7451C17.1011 14.1501 16.1463 15.5461 15.2778 16.9238C14.4138 18.3061 13.6999 19.552 13.1407 20.666ZM24.7129 19.1519C25.5269 19.1519 26.4817 18.5698 26.9501 17.3603C28.3278 17.3376 29.7784 16.6555 30.465 15.1095V15.0595C30.465 14.9367 30.4149 14.914 30.2922 14.864C30.2194 14.864 30.1467 14.914 30.1239 14.9868C29.5556 16.3418 28.2778 16.9465 27.0729 16.9966C27.2229 16.56 27.2456 16.1235 27.2456 15.7143C27.2456 13.8227 26.0907 12.5404 24.8357 12.5404C23.9263 12.5404 23.1897 13.1725 23.1897 14.2365V14.4548L23.1669 14.382C23.1669 14.382 23.0942 14.1865 22.9669 14.1865C22.9214 14.1865 22.8714 14.2092 22.8214 14.2592C22.5258 14.7185 22.353 15.396 22.353 16.1235C22.353 17.6013 23.1169 19.1519 24.7129 19.1519ZM26.7045 17.0193L26.2635 16.9738C25.8451 16.9011 25.4496 16.7783 25.0812 16.5873C24.9357 16.4646 24.6402 16.1735 24.4947 15.6643C24.3946 15.3005 24.3446 14.914 24.3446 14.573C24.3446 14.1637 24.4174 13.7772 24.5674 13.4862C24.7857 13.027 25.1085 12.9269 25.154 12.9269C26.1907 13.1452 26.9001 14.2365 26.9001 15.7143C26.9001 16.1735 26.8546 16.5373 26.7045 17.0193ZM25.1813 18.7426H25.1313C24.7402 18.7426 24.3446 18.5244 24.1218 18.0378C23.9036 17.5286 23.8535 16.9738 23.8535 16.5873L23.8808 16.0781C24.5674 16.8738 25.3768 17.1921 26.5818 17.3603C26.2635 18.0606 25.7724 18.5698 25.1813 18.7426ZM32.7158 25.254C32.9386 25.254 33.2569 25.2313 33.7025 25.1585C35.0029 24.9175 35.9123 23.8035 35.9123 22.253C35.9123 21.2572 35.544 20.0977 34.9074 18.7426C36.1079 18.1106 37.1401 17.2876 38.0495 15.1095L38.0767 15.0368C38.0767 14.9367 38.0267 14.8913 37.904 14.864C37.8312 14.864 37.7585 14.914 37.7312 14.9868C36.849 17.0466 35.9123 17.8196 34.7574 18.4243C34.5346 17.9424 34.289 17.4558 34.0208 16.9465C33.1114 15.255 32.7931 14.1637 32.7931 13.4862C32.7931 12.8815 33.0886 12.5905 33.3342 12.5905C33.5297 12.5905 33.6252 12.6632 33.7025 12.736L33.998 13.1952V13.3635C33.9207 13.4362 33.898 13.5317 33.898 13.6317C33.898 13.8 34.0708 13.9227 34.1936 13.9227C34.3663 13.9227 34.5346 13.7772 34.5346 13.6045C34.5118 13.2907 34.2163 12.8815 34.2163 12.8815C33.7525 12.1039 33.1114 11.7674 32.5202 11.7674C31.7109 11.7674 31.047 12.4677 31.047 13.6045C31.047 14.141 31.1698 14.7912 31.4881 15.5188C31.8336 16.4145 32.6703 17.9424 33.2569 19.1019L32.3975 19.5156C30.3104 20.5796 30.0648 21.6937 29.9875 22.6622C29.9875 24.3128 31.3153 25.1085 32.2019 25.2086C32.2247 25.2086 32.3747 25.254 32.7158 25.254ZM32.4475 24.8675C31.6381 24.8675 30.3331 24.2128 30.3331 22.6622C30.3831 21.7937 30.6787 20.7752 32.5703 19.8294C32.8658 19.6839 33.1341 19.5384 33.4296 19.4201C34.0435 20.6797 34.2663 21.721 34.2663 22.544C34.2663 24.0945 33.4069 24.8675 32.4475 24.8675ZM46.5707 21.0162C48.4895 21.0162 50.4311 18.8836 51.9316 15.1095L51.9544 15.0368C51.9544 14.914 51.8816 14.914 51.7589 14.864C51.7088 14.864 51.6361 14.914 51.6088 14.9868C50.5039 17.7468 49.1261 19.6384 47.7529 20.3387C47.6301 20.3614 47.5074 20.3887 47.3846 20.3887C46.8162 20.3887 46.1796 20.0704 45.7613 19.2246C45.5385 18.7654 45.2202 17.7968 45.2202 16.6101C45.2202 16.1235 45.2702 15.5915 45.4157 15.0368C45.8113 13.5817 46.4752 12.9997 46.7662 12.9542C46.9162 12.9542 47.039 13.0724 47.0617 13.0997C47.2345 13.3635 47.3346 13.6772 47.3346 14.0182C47.3346 14.2365 47.2845 14.4775 47.2118 14.6957C47.2118 14.6957 47.1845 14.7685 47.1345 14.7685C46.9663 14.7912 46.8435 14.914 46.8435 15.0822C46.8435 15.255 46.939 15.396 47.1618 15.4233C47.2845 15.4233 47.4073 15.3278 47.4573 15.205C47.4573 15.205 47.5528 14.9868 47.6301 14.6457C47.6756 14.4775 47.7029 14.2365 47.7029 14.0683C47.7029 13.0997 47.0617 12.2994 46.2751 12.2994C45.343 12.3449 43.5241 13.2907 43.5241 16.6828C43.5241 18.9836 44.6791 21.0162 46.5707 21.0162ZM58.7295 20.5569C58.925 20.5569 59.0978 20.5069 59.2933 20.4114C60.9894 19.5884 61.9716 15.255 62.0216 15.0822V15.0368C62.0216 14.964 61.9488 14.8913 61.8761 14.864H61.8261C61.7533 14.864 61.7033 14.914 61.6805 14.9868C61.6533 15.0368 60.8166 18.7154 59.4934 19.8567C59.4661 19.8794 59.3434 19.9522 59.1978 19.9522H59.0978C58.6567 19.8294 58.534 19.0791 58.4112 18.1833C58.3112 17.4331 58.2384 15.8098 58.2384 14.7912V14.3092C58.2384 13.4362 57.8201 13.1225 57.5245 12.977C57.4018 12.9042 57.279 12.9042 57.2062 12.9042C57.0835 12.9042 57.0107 12.9269 56.9607 12.977C56.9107 12.9997 56.8607 13.027 56.8607 13.0997C56.8607 13.1725 56.7879 13.6545 56.7379 14.3547V14.4775C56.2241 13.8 55.5602 13.4362 54.869 13.4362L54.6235 13.4589C53.6914 13.6045 52.9047 14.4275 52.6319 15.5688C52.5591 15.8825 52.4864 16.2236 52.4864 16.6328C52.4864 16.9238 52.5364 17.2376 52.6319 17.5786C52.8547 18.3061 53.4458 18.9563 54.2325 18.9563C54.3279 18.9563 54.428 18.9563 54.528 18.9336C55.2374 18.7654 55.8558 18.1106 56.3923 16.9738C56.5151 16.7283 56.6151 16.4646 56.7152 16.1735C56.7379 17.9651 57.0562 19.9249 58.1884 20.4341C58.3612 20.5342 58.534 20.5569 58.7295 20.5569ZM54.8463 18.1606C54.528 18.1606 54.2052 17.9424 54.0597 17.6013C53.9596 17.3831 53.8641 17.0693 53.8641 16.6828C53.8641 16.2236 53.9869 15.6643 54.3279 15.0095C54.6008 14.4775 54.9418 14.2092 55.2146 14.1137C55.3601 14.0683 55.4602 14.041 55.5602 14.041C55.7284 14.041 55.8285 14.091 55.8558 14.091C56.1468 14.3092 56.4196 14.6003 56.6424 14.9868C56.5151 15.5915 56.3468 16.2463 56.074 16.8283C55.8558 17.3103 55.6057 17.6741 55.3601 17.9651C55.2146 18.0879 55.0418 18.1606 54.8463 18.1606ZM64.2769 25.254C64.4952 25.254 64.818 25.2313 65.2591 25.1585C66.5595 24.9175 67.469 23.8035 67.469 22.253C67.469 21.2572 67.1006 20.0977 66.4641 18.7426C67.669 18.1106 68.7012 17.2876 69.6106 15.1095L69.6334 15.0368C69.6334 14.9367 69.5833 14.8913 69.4606 14.864C69.3878 14.864 69.3151 14.914 69.2878 14.9868C68.4057 17.0466 67.469 17.8196 66.314 18.4243C66.0957 17.9424 65.8502 17.4558 65.5774 16.9465C64.668 15.255 64.3497 14.1637 64.3497 13.4862C64.3497 12.8815 64.6452 12.5905 64.8908 12.5905C65.0863 12.5905 65.1863 12.6632 65.2591 12.736L65.5546 13.1952V13.3635C65.4773 13.4362 65.4546 13.5317 65.4546 13.6317C65.4546 13.8 65.6274 13.9227 65.7502 13.9227C65.923 13.9227 66.0957 13.7772 66.0957 13.6045C66.0685 13.2907 65.7729 12.8815 65.7729 12.8815C65.3091 12.1039 64.668 11.7674 64.0768 11.7674C63.2675 11.7674 62.6036 12.4677 62.6036 13.6045C62.6036 14.141 62.7264 14.7912 63.0447 15.5188C63.3902 16.4145 64.2269 17.9424 64.818 19.1019L63.9541 19.5156C61.867 20.5796 61.6214 21.6937 61.5487 22.6622C61.5487 24.3128 62.8719 25.1085 63.7586 25.2086C63.7813 25.2086 63.9313 25.254 64.2769 25.254ZM64.0041 24.8675C63.1947 24.8675 61.8897 24.2128 61.8897 22.6622C61.9397 21.7937 62.2353 20.7752 64.1269 19.8294C64.4224 19.6839 64.6907 19.5384 64.9863 19.4201C65.6001 20.6797 65.8229 21.721 65.8229 22.544C65.8229 24.0945 64.9635 24.8675 64.0041 24.8675ZM76.4085 20.5569C76.604 20.5569 76.7768 20.5069 76.9723 20.4114C78.6684 19.5884 79.6505 15.255 79.7006 15.0822V15.0368C79.7006 14.964 79.6278 14.8913 79.555 14.864H79.505C79.4323 14.864 79.3823 14.914 79.3595 14.9868C79.3322 15.0368 78.4956 18.7154 77.1724 19.8567C77.1451 19.8794 77.0223 19.9522 76.8768 19.9522H76.7768C76.3357 19.8294 76.213 19.0791 76.0902 18.1833C75.9902 17.4331 75.9174 15.8098 75.9174 14.7912V14.3092C75.9174 13.4362 75.4991 13.1225 75.2035 12.977C75.0807 12.9042 74.958 12.9042 74.8852 12.9042C74.7624 12.9042 74.6897 12.9269 74.6397 12.977C74.5897 12.9997 74.5396 13.027 74.5396 13.0997C74.5396 13.1725 74.4669 13.6545 74.4169 14.3547V14.4775C73.9031 13.8 73.2392 13.4362 72.548 13.4362L72.3025 13.4589C71.3703 13.6045 70.5837 14.4275 70.3109 15.5688C70.2381 15.8825 70.1654 16.2236 70.1654 16.6328C70.1654 16.9238 70.2154 17.2376 70.3109 17.5786C70.5337 18.3061 71.1248 18.9563 71.9114 18.9563C72.0069 18.9563 72.107 18.9563 72.207 18.9336C72.9163 18.7654 73.5302 18.1106 74.0713 16.9738C74.1941 16.7283 74.2941 16.4646 74.3941 16.1735C74.4169 17.9651 74.7352 19.9249 75.8674 20.4341C76.0402 20.5342 76.213 20.5569 76.4085 20.5569ZM72.5253 18.1606C72.207 18.1606 71.8842 17.9424 71.7386 17.6013C71.6386 17.3831 71.5431 17.0693 71.5431 16.6828C71.5431 16.2236 71.6659 15.6643 72.0069 15.0095C72.2797 14.4775 72.6208 14.2092 72.8936 14.1137C73.0391 14.0683 73.1391 14.041 73.2392 14.041C73.4074 14.041 73.5075 14.091 73.5302 14.091C73.8258 14.3092 74.0986 14.6003 74.3168 14.9868C74.1941 15.5915 74.0258 16.2463 73.753 16.8283C73.5302 17.3103 73.2847 17.6741 73.0391 17.9651C72.8936 18.0879 72.7208 18.1606 72.5253 18.1606ZM91.4411 22.0347C93.0871 22.0347 94.4876 19.1019 95.3515 15.1095V15.0595C95.3515 14.964 95.2742 14.914 95.1788 14.8913C95.106 14.8913 95.0287 14.964 95.006 15.0368C94.3194 18.2061 93.3599 20.4341 92.3505 21.2844C92.3005 21.3072 92.2277 21.3299 92.155 21.3299C92.0549 21.3299 91.9594 21.3072 91.8594 21.2117C91.5638 20.9707 91.4911 19.9522 91.4911 18.9563C91.4911 17.4103 91.5411 17.4558 91.5638 16.4418C91.5638 15.737 91.4911 15.0595 91.1228 14.4775C90.7272 13.85 90.1133 13.7045 89.6723 13.7045C89.3267 13.7045 89.0811 13.7772 89.0811 13.7772C88.7856 13.8727 88.4446 14.0683 88.1717 14.4548C88.1717 13.8227 88.1717 11.4992 86.8213 10.7989C86.4529 10.6034 86.1074 10.5534 85.8118 10.5534C85.3935 10.5534 85.1252 10.6534 85.1252 10.6534L85.0979 10.6761C83.943 10.8944 82.888 13.2907 81.8786 16.1235V15.8098C81.8786 15.446 81.8559 15.155 81.7831 15.0368C81.6103 14.7912 81.192 14.7458 80.8964 14.7458L80.5781 14.7685C80.5781 14.864 80.4281 14.8413 80.4281 14.964C80.4053 16.4646 80.3826 17.0193 80.2326 19.2474V19.3929C80.2326 19.9021 80.3553 20.0476 80.5781 20.0704C80.6736 20.0704 80.7009 20.0022 80.8237 20.0022L80.8464 19.9249C81.1192 19.6611 81.242 19.2246 81.5376 18.2561C82.3469 15.737 83.8975 11.0126 85.2707 11.0126C86.2301 11.0626 86.6257 12.2994 86.6257 14.4275C86.6257 16.6555 86.1574 19.1291 86.1574 19.1746V19.2246C86.1574 19.3201 86.2074 19.3701 86.3302 19.3701C86.4029 19.3701 86.4757 19.3201 86.503 19.2474C86.503 19.2019 87.6806 14.8413 88.9857 14.1637C89.1084 14.1137 89.2039 14.091 89.3039 14.091C89.8678 14.1865 89.9906 14.7185 89.9906 15.9553C89.9906 16.9966 89.8678 18.2061 89.8678 19.2246C89.8678 20.4341 90.0406 21.4527 90.7545 21.8392C90.9727 21.962 91.2183 22.0347 91.4411 22.0347ZM98.2389 19.1519C99.0528 19.1519 100.012 18.5698 100.476 17.3603C101.854 17.3376 103.304 16.6555 103.991 15.1095V15.0595C103.991 14.9367 103.941 14.914 103.818 14.864C103.745 14.864 103.673 14.914 103.65 14.9868C103.082 16.3418 101.804 16.9465 100.599 16.9966C100.749 16.56 100.772 16.1235 100.772 15.7143C100.772 13.8227 99.6167 12.5404 98.3617 12.5404C97.4523 12.5404 96.7157 13.1725 96.7157 14.2365V14.4548L96.6929 14.382C96.6929 14.382 96.6202 14.1865 96.4974 14.1865C96.4474 14.1865 96.3974 14.2092 96.3474 14.2592C96.0518 14.7185 95.879 15.396 95.879 16.1235C95.879 17.6013 96.6429 19.1519 98.2389 19.1519ZM100.231 17.0193L99.7895 16.9738C99.3711 16.9011 98.9801 16.7783 98.6072 16.5873C98.4617 16.4646 98.1662 16.1735 98.0207 15.6643C97.9206 15.3005 97.8706 14.914 97.8706 14.573C97.8706 14.1637 97.9479 13.7772 98.0934 13.4862C98.3162 13.027 98.6345 12.9269 98.6845 12.9269C99.7167 13.1452 100.431 14.2365 100.431 15.7143C100.431 16.1735 100.381 16.5373 100.231 17.0193ZM98.7073 18.7426H98.6573C98.2662 18.7426 97.8706 18.5244 97.6524 18.0378C97.4296 17.5286 97.3795 16.9738 97.3795 16.5873L97.4068 16.0781C98.0934 16.8738 98.9028 17.1921 100.108 17.3603C99.7895 18.0606 99.2984 18.5698 98.7073 18.7426ZM106.246 25.254C106.465 25.254 106.783 25.2313 107.228 25.1585C108.529 24.9175 109.438 23.8035 109.438 22.253C109.438 21.2572 109.07 20.0977 108.433 18.7426C109.638 18.1106 110.671 17.2876 111.58 15.1095L111.603 15.0368C111.603 14.9367 111.553 14.8913 111.43 14.864C111.357 14.864 111.284 14.914 111.257 14.9868C110.375 17.0466 109.438 17.8196 108.283 18.4243C108.065 17.9424 107.82 17.4558 107.547 16.9465C106.637 15.255 106.319 14.1637 106.319 13.4862C106.319 12.8815 106.615 12.5905 106.86 12.5905C107.056 12.5905 107.156 12.6632 107.228 12.736L107.524 13.1952V13.3635C107.447 13.4362 107.424 13.5317 107.424 13.6317C107.424 13.8 107.597 13.9227 107.72 13.9227C107.892 13.9227 108.065 13.7772 108.065 13.6045C108.038 13.2907 107.742 12.8815 107.742 12.8815C107.278 12.1039 106.637 11.7674 106.046 11.7674C105.237 11.7674 104.573 12.4677 104.573 13.6045C104.573 14.141 104.696 14.7912 105.014 15.5188C105.36 16.4145 106.196 17.9424 106.783 19.1019L105.923 19.5156C103.836 20.5796 103.591 21.6937 103.518 22.6622C103.518 24.3128 104.841 25.1085 105.728 25.2086C105.755 25.2086 105.901 25.254 106.246 25.254ZM105.973 24.8675C105.164 24.8675 103.859 24.2128 103.859 22.6622C103.909 21.7937 104.205 20.7752 106.096 19.8294C106.392 19.6839 106.66 19.5384 106.956 19.4201C107.574 20.6797 107.792 21.721 107.792 22.544C107.792 24.0945 106.933 24.8675 105.973 24.8675ZM113.658 20.8979C114.076 20.8979 114.422 20.5342 114.422 20.1204C114.422 19.7112 114.076 19.3474 113.658 19.3474C113.217 19.3474 112.871 19.7112 112.871 20.1204C112.871 20.5342 113.217 20.8979 113.658 20.8979ZM113.831 18.4016C114.199 18.4016 114.467 18.1833 114.59 17.6013C114.84 16.269 115.5 7.45683 115.5 5.58798C115.477 4.74223 115.209 4.59672 114.74 4.57399C114.467 4.57399 114.272 4.69221 114.272 4.69221C114.222 4.71949 114.176 4.74223 114.176 4.81498C114.176 4.83772 113.781 7.35679 113.167 18.0378V18.0879L113.217 18.1833C113.267 18.2061 113.435 18.4016 113.831 18.4016ZM118.542 20.8979C118.96 20.8979 119.301 20.5342 119.301 20.1204C119.301 19.7112 118.96 19.3474 118.542 19.3474C118.1 19.3474 117.755 19.7112 117.755 20.1204C117.755 20.5342 118.1 20.8979 118.542 20.8979ZM118.714 18.4016C119.083 18.4016 119.351 18.1833 119.474 17.6013C119.719 16.269 120.383 7.45683 120.383 5.58798C120.36 4.74223 120.088 4.59672 119.624 4.57399C119.351 4.57399 119.155 4.69221 119.155 4.69221C119.105 4.71949 119.055 4.74223 119.055 4.81498C119.055 4.83772 118.664 7.35679 118.05 18.0378V18.0879L118.1 18.1833C118.146 18.2061 118.319 18.4016 118.714 18.4016Z" fill="#8FC7AE" stroke="#8FC7AE" stroke-width="0.251434" stroke-miterlimit="22.9256"/>
</svg>
